<svg version="1.1" id="Layer_1" xmlns="http://www.w3.org/2000/svg" xmlns:xlink="http://www.w3.org/1999/xlink" x="0px" y="0px"
	 width="50px" heigth="50px" viewBox="0 0 50 50" enable-background="new 0 0 50 50" xml:space="preserve">

<path fill="#9DD7E1" opacity="1.000000" stroke="none" 
	d="
M36.571537,1.000000 
	C37.000000,1.000000 36.975002,1.446509 37.020290,1.665479 
	C35.403545,3.579792 33.530125,3.458534 31.229038,2.152368 
	C30.895908,1.779881 30.919035,1.386080 30.959518,1.193040 
	C32.714359,1.000000 34.428715,1.000000 36.571537,1.000000 
z"/>
<path fill="#089AB4" opacity="1.000000" stroke="none" 
	d="
M30.534431,1.855855 
	C32.660480,1.854352 34.425049,1.928824 36.627602,1.943872 
	C44.701824,3.586658 48.828747,8.708025 49.694187,16.115265 
	C52.738575,42.171833 36.712605,51.584091 16.087412,47.736183 
	C9.167751,46.445229 3.869132,41.977356 2.400240,34.763691 
	C0.943516,27.609787 3.120557,21.341793 9.140613,16.668236 
	C13.334557,13.412348 17.372839,9.956307 21.492214,6.603877 
	C24.084875,4.493917 26.836651,2.666371 30.534431,1.855855 
z"/>
<path fill="#F8FCFD" opacity="1.000000" stroke="none" 
	d="
M22.758741,39.881653 
	C20.305494,38.424389 17.838583,39.054920 15.607580,38.402439 
	C12.228589,37.414223 11.265900,35.576817 13.349271,32.514763 
	C16.470936,27.926668 22.823816,25.562544 26.795183,27.528112 
	C30.222176,29.224251 33.292961,37.616611 31.955769,41.745876 
	C31.023191,44.625687 29.037748,44.676502 26.882568,43.301178 
	C25.498819,42.418140 24.357397,41.155361 22.758741,39.881653 
z"/>
<path fill="#EFF8FA" opacity="1.000000" stroke="none" 
	d="
M39.411945,19.477917 
	C39.050236,20.445314 38.896515,21.110907 38.554138,21.658554 
	C37.053474,24.058943 35.070274,25.878162 32.050343,24.881119 
	C29.999292,24.203959 29.662092,22.176113 30.174751,20.313276 
	C30.954569,17.479679 32.472973,15.035278 35.724648,14.729696 
	C38.781998,14.442377 39.731735,16.379959 39.411945,19.477917 
z"/>
<path fill="#F2FAFB" opacity="1.000000" stroke="none" 
	d="
M28.887844,12.658899 
	C29.076063,14.201415 29.261753,15.367270 29.165909,16.509502 
	C28.953533,19.040512 27.753817,21.108463 25.183065,21.612511 
	C22.962440,22.047913 21.922388,20.185869 21.404526,18.392082 
	C20.545376,15.416139 21.337948,12.748299 23.807989,10.834588 
	C25.960436,9.166940 27.484322,10.481102 28.887844,12.658899 
z"/>
<path fill="#EDF8FA" opacity="1.000000" stroke="none" 
	d="
M19.065121,24.208958 
	C17.988190,26.637716 16.467436,27.971064 14.249716,26.598701 
	C11.833760,25.103670 11.509586,22.533051 12.026674,19.937536 
	C12.403152,18.047808 13.404974,16.220718 15.536366,16.345764 
	C18.098957,16.496105 19.042601,18.621546 19.338137,20.908360 
	C19.461699,21.864450 19.228842,22.866602 19.065121,24.208958 
z"/>
<path fill="#F8FCFD" opacity="1.000000" stroke="none" 
	d="
M34.429375,34.764492 
	C31.657326,31.607853 33.278023,29.345699 35.484173,27.335629 
	C37.049885,25.909073 39.018482,25.324148 40.968639,26.453226 
	C42.477047,27.326548 42.528397,28.994219 42.008938,30.448973 
	C40.815952,33.789921 38.543064,35.604454 34.429375,34.764492 
z"/>
</svg>